# Blender 4.3.2
# www.blender.org
mtllib shroom.mtl
o Cylinder.004
v -0.333444 -0.139816 -0.148445
v -1.183805 2.112377 0.393802
v -0.296430 -0.068659 -0.474911
v -1.165093 2.148350 0.228763
v -0.043186 0.040461 -0.667195
v -1.037069 2.203514 0.131557
v 0.277940 0.123624 -0.612660
v -0.874728 2.245556 0.159130
v 0.478838 0.132112 -0.343251
v -0.773167 2.249848 0.295322
v 0.441824 0.060955 -0.016789
v -0.791879 2.213875 0.460361
v 0.188580 -0.048165 0.175495
v -0.919903 2.158710 0.557567
v -0.132546 -0.131327 0.120960
v -1.082244 2.116669 0.530002
v -1.374008 3.607055 0.430622
v -1.401076 3.575252 0.646289
v -1.201568 3.642886 0.299327
v -0.984769 3.661753 0.329318
v -0.850610 3.652605 0.503032
v -0.877678 3.620802 0.718700
v -1.050118 3.584971 0.849986
v -1.266917 3.566104 0.819995
v -3.331907 3.669961 -0.682969
v -3.571187 3.388822 1.223506
v -1.807565 3.986691 -1.843575
v 0.108900 4.153478 -1.578446
v 1.294847 4.072618 -0.042889
v 1.055566 3.791478 1.863590
v -0.468776 3.474748 3.024196
v -2.385240 3.307962 2.759067
v -2.817166 4.392211 -0.246194
v -2.992172 4.186591 1.148166
v -1.702293 4.623862 -1.095040
v -0.300630 4.745845 -0.901127
v 0.566748 4.686706 0.221946
v 0.391742 4.481087 1.616306
v -0.723130 4.249436 2.465152
v -2.124794 4.127452 2.271236
v -2.044105 5.001786 0.317153
v -2.128034 4.903174 0.985866
v -1.509432 5.112881 -0.089936
v -0.837220 5.171382 0.003059
v -0.421241 5.143021 0.541667
v -0.505170 5.044409 1.210376
v -1.039843 4.933312 1.617465
v -1.712056 4.874812 1.524471
vn -0.9344 -0.3110 -0.1737
vn -0.6084 0.0135 -0.7936
vn -0.6089 0.0180 -0.7930
vn 0.0615 0.3705 -0.9268
vn 0.6631 0.5463 -0.5117
vn 0.8688 0.4541 0.1975
vn 0.5599 0.1398 0.8167
vn -0.6095 0.0225 -0.7925
vn -0.1072 -0.2216 0.9692
vn -0.7259 -0.4075 0.5541
vn 0.2746 -0.9455 -0.1750
vn 0.9914 0.0367 0.1258
vn -0.7786 -0.2171 0.5888
vn -0.9827 -0.1216 -0.1398
vn 0.1286 0.1287 -0.9833
vn 0.6217 -0.1035 0.7764
vn 0.7899 0.1328 -0.5987
vn -0.1138 -0.2092 0.9712
vn 0.1387 -0.9865 -0.0871
vn -0.8099 0.5864 -0.0152
vn 0.1486 -0.9749 -0.1661
vn 0.0692 -0.9818 -0.1771
vn 0.0969 -0.9924 -0.0762
vn 0.1601 -0.9792 -0.1243
vn 0.1109 -0.9759 -0.1879
vn 0.0478 -0.9890 -0.1399
vn 0.0593 -0.9934 -0.0981
vn -0.1550 0.7398 0.6547
vn -0.6582 0.5284 0.5362
vn 0.3899 0.6196 0.6812
vn 0.5208 0.7734 -0.3615
vn -0.5274 0.6822 -0.5065
vn -0.1613 0.5422 0.8247
vn 0.6724 0.7154 0.1899
vn 0.0238 0.7596 -0.6499
vn -0.1041 0.9857 0.1323
vn 0.4609 0.8678 0.1858
vn -0.0182 0.9004 -0.4346
vn -0.6341 0.7725 0.0343
vn -0.5221 0.7296 0.4416
vn 0.2522 0.7970 0.5488
vn 0.3489 0.9106 -0.2215
vn -0.4254 0.8432 -0.3286
vt 0.528721 0.477984
vt 0.769470 0.687042
vt 0.746204 0.710656
vt 0.551674 0.554592
vt 0.724761 0.733975
vt 0.537102 0.590786
vt 0.703236 0.757642
vt 0.497634 0.594903
vt 0.679531 0.780609
vt 0.429601 0.574709
vt 0.223663 0.301785
vt 0.245305 0.272101
vt 0.403956 0.504354
vt 0.269627 0.246282
vt 0.419551 0.467725
vt 0.872322 0.879230
vt 0.838389 0.905832
vt 0.296500 0.224392
vt 0.454595 0.444892
vt 0.325873 0.204102
vt 0.041510 0.188494
vt 0.058225 0.141229
vt 0.122970 0.076138
vt 0.168058 0.050080
vt 0.900858 0.841211
vt 0.810923 0.938054
vt 0.091775 0.110693
vt 0.770340 0.955271
vt 0.272199 0.768437
vt 0.238186 0.763823
vt 0.199938 0.375098
vt 0.304274 0.370785
vt 0.820985 0.724387
vt 0.982903 0.732172
vt 0.935888 0.871403
vt 0.809455 0.800928
vt 0.684943 0.390358
vt 0.712952 0.399842
vt 0.653049 0.717080
vt 0.512886 0.711572
vt 0.741086 0.395957
vt 0.769952 0.397773
vt 0.733774 0.723577
vt 0.307399 0.769732
vt 0.416016 0.376251
vt 0.202653 0.777102
vt 0.017540 0.378284
vt 0.801209 0.391463
vt 0.344423 0.783213
vt 0.626379 0.382004
vt 0.411999 0.277513
vt 0.300629 0.298174
vt 0.298292 0.142194
vt 0.387592 0.098434
vt 0.585966 0.197962
vt 0.198766 0.306494
vt 0.647090 0.770638
vt 0.537122 0.792707
vt 0.725181 0.780151
vt 0.058692 0.274557
vt 0.725408 0.367341
vt 0.662985 0.273536
vt 0.661570 0.141173
vt 0.721992 0.047786
vt 0.808855 0.048080
vt 0.871278 0.141885
vt 0.872693 0.274248
vt 0.812272 0.367635
vt 0.133747 0.134359
vt 0.214414 0.162672
vt 0.711114 0.900657
vt 0.648428 0.882497
vt 0.838001 1.002107
vt 0.775905 0.937847
vt 0.477422 0.020531
vt 0.584588 0.902734
s 1
usemtl Stem
f 1/1/1 2/2/1 4/3/1 3/4/1
f 3/4/2 4/3/3 6/5/3 5/6/2
f 5/6/4 6/5/4 8/7/4 7/8/4
f 7/8/5 8/7/5 10/9/5 9/10/5
f 9/10/6 10/11/6 12/12/6 11/13/6
f 11/13/7 12/12/7 14/14/7 13/15/7
f 6/5/3 4/3/3 17/16/8 19/17/8
f 13/15/9 14/14/9 16/18/9 15/19/9
f 15/19/10 16/18/10 2/20/10 1/1/10
f 1/1/11 3/4/11 5/6/11 7/8/11 9/10/11 11/13/11 13/15/11 15/19/11
f 12/12/12 10/11/12 21/21/12 22/22/12
f 2/20/13 16/18/13 24/23/13 18/24/13
f 4/3/14 2/2/14 18/25/14 17/16/14
f 8/7/15 6/5/15 19/17/15 20/26/15
f 14/14/16 12/12/16 22/22/16 23/27/16
f 10/9/17 8/7/17 20/26/17 21/28/17
f 16/18/18 14/14/18 23/27/18 24/23/18
usemtl Cap
f 23/29/19 22/30/19 30/31/19 31/32/19
f 25/33/20 26/34/20 34/35/20 33/36/20
f 21/37/21 20/38/21 28/39/21 29/40/21
f 19/41/22 17/42/22 25/33/22 27/43/22
f 24/44/23 23/29/23 31/32/23 32/45/23
f 22/30/24 21/46/24 29/47/24 30/31/24
f 20/38/25 19/41/25 27/43/25 28/39/25
f 17/42/26 18/48/26 26/34/26 25/33/26
f 18/49/27 24/44/27 32/45/27 26/50/27
f 40/51/28 39/52/28 47/53/28 48/54/28
f 26/50/29 32/45/29 40/51/29 34/55/29
f 31/32/30 30/31/30 38/56/30 39/52/30
f 29/40/31 28/39/31 36/57/31 37/58/31
f 27/43/32 25/33/32 33/36/32 35/59/32
f 32/45/33 31/32/33 39/52/33 40/51/33
f 30/31/34 29/47/34 37/60/34 38/56/34
f 28/39/35 27/43/35 35/59/35 36/57/35
f 41/61/36 42/62/36 48/63/36 47/64/36 46/65/36 45/66/36 44/67/36 43/68/36
f 38/56/37 37/60/37 45/69/37 46/70/37
f 36/57/38 35/59/38 43/71/38 44/72/38
f 33/36/39 34/35/39 42/73/39 41/74/39
f 34/55/40 40/51/40 48/54/40 42/75/40
f 39/52/41 38/56/41 46/70/41 47/53/41
f 37/58/42 36/57/42 44/72/42 45/76/42
f 35/59/43 33/36/43 41/74/43 43/71/43
