# Blender 4.3.2
# www.blender.org
mtllib playerBeam.mtl
o Cylinder.003
v 0.995325 0.000000 -1.297133
v 0.848314 0.161000 -1.469323
v 0.817500 0.000000 -1.415952
v 0.848314 -0.161000 -1.469323
v 0.649272 0.161000 -1.567480
v 0.625688 -0.000000 -1.510543
v 0.649272 -0.161000 -1.567480
v -1.621012 -0.000000 -0.213411
v -1.696628 0.161000 -0.000000
v -1.635000 0.000000 -0.000000
v -1.696628 -0.161000 -0.000000
v -1.621012 -0.000000 0.213411
v 0.649272 0.161000 1.567480
v 0.625688 0.000000 1.510543
v 0.649272 -0.161000 1.567480
v 0.848314 0.161000 1.469323
v 0.817500 -0.000000 1.415952
v 0.848314 -0.161000 1.469323
v 0.995325 0.000000 1.297133
v 0.399904 -0.259808 -0.491171
v 0.999904 -0.259808 -1.530402
v 0.399904 0.259808 -0.491171
v 0.999904 0.259808 -1.530402
v 0.399904 0.259808 0.485385
v 0.999904 0.259808 1.524615
v 0.399904 -0.259808 0.485385
v 0.999904 -0.259808 1.524615
v 0.740096 -0.259808 1.674615
v 0.740096 0.259808 1.674615
v -1.754754 0.259808 0.151324
v -1.754754 -0.259808 0.151324
v -1.754754 -0.259808 -0.148676
v -1.754754 0.259808 -0.148676
v 0.618417 -0.161000 1.577954
v 0.672146 -0.202840 1.622702
v 0.618417 0.161000 1.577954
v 0.672145 0.202840 1.622702
v 0.497322 0.000000 1.554117
v 0.910154 0.247575 1.576433
v 0.910154 -0.247575 1.576433
v 0.738526 -0.256668 1.675522
v 0.738526 0.256668 1.675522
v 1.003546 0.252523 1.522512
v 1.010267 -0.064122 1.316606
v 0.982202 -0.161000 1.379862
v 1.003546 -0.252523 1.522512
v 1.026160 0.000000 1.270092
v 1.010267 0.064122 1.316606
v 0.982202 0.161000 1.379862
v 0.615624 0.161000 -1.578902
v 0.494528 0.000000 -1.555066
v 0.615624 -0.161000 -1.578902
v 0.674216 -0.206628 -1.627701
v 0.912659 0.251083 -1.580772
v 0.912659 -0.251083 -1.580772
v 0.739798 -0.259808 -1.679885
v 0.747977 -0.259808 -1.675852
v 1.009192 0.059509 -1.315204
v 0.979791 0.161000 -1.381473
v 1.009192 -0.059509 -1.315204
v 0.979791 -0.161000 -1.381473
v 1.001902 0.255811 -1.529248
v 1.023942 -0.000000 -1.272036
v 1.001902 -0.255811 -1.529248
v 0.674216 0.206628 -1.627701
v 0.747979 0.259808 -1.675851
v 0.739798 0.259808 -1.679885
v -1.603525 0.000000 0.301324
v -1.604052 -0.000000 -0.298676
v -1.674198 -0.140143 0.220413
v -1.674198 0.140143 0.220413
v -1.682971 0.161000 0.208371
v -1.682971 -0.161000 0.208371
v -1.672596 -0.135921 -0.220202
v -1.683145 -0.161000 -0.205722
v -1.683145 0.161000 -0.205722
v -1.672596 0.135921 -0.220202
v -1.754754 -0.209951 0.180109
v -1.754754 0.209951 0.180109
v -1.754754 0.201688 -0.000000
v -1.754754 0.209833 -0.177529
v -1.754754 -0.201688 -0.000000
v -1.754754 -0.209833 -0.177529
v 0.148180 -0.259808 0.649386
v 0.150908 -0.259808 0.647787
v 0.018775 -0.000000 0.725250
v 0.148180 0.259808 0.649386
v 0.150909 0.259808 0.647786
v 0.461386 0.150598 0.465770
v 0.536395 -0.000000 0.421795
v 0.461386 -0.150597 0.465770
v 0.336578 -0.259808 0.522229
v 0.364123 -0.250089 0.506043
v 0.414635 -0.230345 0.476879
v 0.337317 -0.259808 0.521519
v -0.704123 0.259808 0.151324
v -0.704123 0.259808 -0.148676
v -0.704123 0.000000 0.301324
v -0.704123 -0.259808 -0.148676
v -0.704123 -0.259808 0.151324
v -0.704123 0.000000 -0.298676
v 0.336579 0.259808 0.522228
v 0.337319 0.259808 0.521518
v 0.364151 0.250079 0.506026
v 0.414634 0.230347 0.476880
v 0.150909 0.259808 -0.647786
v 0.458360 0.151662 -0.467544
v 0.284418 0.259808 -0.557847
v 0.427957 0.203702 -0.474975
v 0.016279 0.000000 -0.726713
v 0.150908 -0.259808 -0.647787
v 0.145684 -0.259808 -0.650849
v 0.145684 0.259808 -0.650850
v 0.533900 0.000000 -0.423258
v 0.458360 -0.151662 -0.467543
v 0.284415 -0.259808 -0.557848
v 0.427957 -0.203701 -0.474974
vn 0.5190 0.3568 -0.7767
vn 0.4132 -0.3568 -0.8378
vn 0.4132 0.3568 -0.8378
vn 0.2540 0.8187 -0.5151
vn 0.3003 -0.3568 -0.8846
vn 0.3003 0.3568 -0.8846
vn 0.1846 0.8187 -0.5438
vn -0.9322 0.3568 -0.0611
vn -0.9322 -0.3568 0.0611
vn -0.9322 0.3568 0.0611
vn -0.5731 0.8187 0.0376
vn -0.9162 0.3568 0.1822
vn 0.4132 -0.3568 0.8378
vn 0.4132 0.3568 0.8378
vn 0.2540 0.8187 0.5151
vn 0.5190 -0.3568 0.7767
vn 0.5190 0.3568 0.7767
vn 0.3191 0.8187 0.4775
vn 0.6159 0.3568 0.7023
vn 0.7500 -0.5000 0.4330
vn -0.0000 1.0000 -0.0000
vn 0.7500 0.5000 -0.4330
vn -0.0000 -1.0000 -0.0000
vn -0.5000 -0.0000 -0.8660
vn 0.5000 -0.0000 0.8660
vn 0.6159 -0.3568 -0.7023
vn -0.9162 -0.3568 0.1822
vn 0.3003 0.3568 0.8846
vn 0.2540 -0.8187 0.5151
vn 0.3191 -0.8187 -0.4775
vn 0.2540 -0.8187 -0.5151
vn 0.6159 0.3568 -0.7023
vn 0.6159 -0.3568 0.7023
vn 0.3191 0.8187 -0.4775
vn 0.5190 -0.3568 -0.7767
vn -1.0000 -0.0000 -0.0000
vn 0.5000 -0.0000 -0.8660
vn -0.5731 0.8187 -0.0376
vn -0.9322 -0.3568 -0.0611
vn 0.3003 -0.3568 0.8846
vn 0.1846 -0.8187 0.5438
vn -0.5731 -0.8187 -0.0376
vn 0.1846 -0.8187 -0.5438
vn 0.3191 -0.8187 0.4775
vn 0.1846 0.8187 0.5438
vn -0.9162 -0.3568 -0.1822
vn -0.9162 0.3568 -0.1822
vn -0.5731 -0.8187 0.0376
vn -0.0000 -0.5000 -0.8660
vn -0.0000 0.5000 -0.8660
vn -0.7500 -0.5000 0.4330
vn -0.5057 -0.0000 0.8627
vn -0.5057 -0.0000 -0.8627
vn -0.7500 0.5000 0.4330
vn -0.5000 -0.0000 0.8660
vn 0.7500 -0.5000 -0.4330
vn 0.7500 0.5000 0.4330
vn -0.5510 -0.6057 -0.5740
vn -0.0000 -0.5000 0.8660
vn -0.5510 0.6059 -0.5739
vn -0.0000 0.5000 0.8660
vn -0.7500 0.5000 -0.4330
vn -0.5482 -0.2077 -0.8101
vn -0.5475 0.2026 0.8119
vn -0.5482 0.2077 -0.8101
vn -0.7500 -0.5000 -0.4330
vn 1.0000 -0.0000 -0.0000
vn -0.5475 -0.2026 0.8119
vt 0.645833 0.000000
vt 0.645833 0.030802
vt 0.651823 0.083333
vt 0.666667 0.083333
vt 0.666667 0.000000
vt 0.666667 0.916667
vt 0.666667 1.000000
vt 0.687500 1.000000
vt 0.687500 0.916667
vt 0.687500 0.083333
vt 0.687500 0.000000
vt 0.666667 0.147027
vt 0.683161 0.153196
vt 0.683950 0.153195
vt 0.687500 0.115595
vt 0.700993 1.000000
vt 0.690836 0.916667
vt 0.690836 0.083333
vt 0.700993 0.000000
vt 0.979167 0.000000
vt 0.979167 0.070353
vt 0.980647 0.083333
vt 1.000000 0.083333
vt 1.000000 0.000000
vt 0.000000 0.916667
vt 0.000000 1.000000
vt 0.020833 1.000000
vt 0.020833 0.927462
vt 0.019602 0.916667
vt 0.000000 0.000000
vt 0.000000 0.083333
vt 0.019602 0.083333
vt 0.020833 0.072538
vt 0.020833 0.000000
vt 0.000000 0.112102
vt 0.016284 0.117944
vt 0.029565 0.000000
vt 0.312500 0.916667
vt 0.312500 1.000000
vt 0.333333 1.000000
vt 0.333333 0.916667
vt 0.312500 0.000000
vt 0.312500 0.083333
vt 0.333333 0.083333
vt 0.333333 0.000000
vt 0.312500 0.112916
vt 0.316102 0.150975
vt 0.333333 0.144547
vt 0.354167 1.000000
vt 0.354167 0.966811
vt 0.348449 0.916667
vt 0.348449 0.083333
vt 0.354167 0.033189
vt 0.354167 0.000000
vt 0.342757 0.148045
vt 0.358162 0.000000
vt 0.500000 0.500000
vt 0.500000 1.000000
vt 0.497436 1.000000
vt 0.436615 0.942070
vt 0.371508 0.924282
vt 0.333333 0.911778
vt 0.333333 0.503410
vt 0.430624 0.503653
vt 0.464007 0.500000
vt 0.166667 0.500000
vt 0.166667 1.000000
vt 0.005057 1.000000
vt -0.000000 0.999751
vt -0.000000 0.504657
vt 0.003365 0.504640
vt 0.092583 0.500000
vt 1.000000 0.500000
vt 1.000000 1.000000
vt 0.995327 1.000000
vt 0.936615 0.944079
vt 0.874468 0.927100
vt 0.833333 0.913627
vt 0.833333 0.505490
vt 0.929942 0.505731
vt 0.981101 0.500000
vt 0.666667 0.500000
vt 0.666667 1.000000
vt 0.500000 0.506737
vt 0.501757 0.506728
vt 0.625965 0.500102
vt 0.626517 0.500000
vt 0.750000 0.490000
vt 0.773569 0.476393
vt 0.725289 0.466747
vt 0.699932 0.461093
vt 0.457846 0.136729
vt 0.381153 0.097021
vt 0.247488 0.011450
vt 0.250000 0.010000
vt 0.457846 0.130000
vt 0.042154 0.367100
vt 0.183093 0.440071
vt 0.255828 0.486635
vt 0.250000 0.490000
vt 0.042154 0.370000
vt 0.642126 1.000000
vt 0.645833 1.000000
vt 0.645833 0.969198
vt 0.029565 1.000000
vt 0.309441 0.083333
vt 0.299295 0.000000
vt 0.312500 0.887084
vt 0.333333 0.855453
vt 0.316102 0.849025
vt 0.651823 0.916667
vt 0.666667 0.852973
vt 0.657683 0.849630
vt 0.687500 0.884405
vt 0.683950 0.846804
vt 0.683160 0.846804
vt 0.642126 0.000000
vt 0.358162 1.000000
vt 0.657683 0.150370
vt 0.457846 0.176055
vt 0.329758 0.109737
vt 0.210020 0.033082
vt 0.042154 0.323835
vt 0.168407 0.389204
vt 0.289885 0.466972
vt 0.451542 0.126360
vt 0.316306 0.056341
vt 0.246803 0.011846
vt 0.042154 0.366308
vt 0.115439 0.404252
vt 0.243694 0.486359
vt 1.000000 0.112102
vt 0.983947 0.117861
vt 0.979167 0.929647
vt 0.979167 1.000000
vt 1.000000 0.916667
vt 0.980647 0.916667
vt 0.299295 1.000000
vt 0.309441 0.916667
vt 1.000000 0.887898
vt 0.983947 0.882139
vt 0.342757 0.851955
vt 0.970698 1.000000
vt 0.970698 0.000000
vt 0.000000 0.887898
vt 0.016284 0.882056
vt 0.333333 0.562237
vt 0.500000 0.562237
vt 0.467941 1.000000
vt 0.436615 0.970163
vt 0.420527 0.965768
vt 0.333333 0.937208
vt -0.000000 0.562237
vt 0.166667 0.562237
vt -0.000000 1.000000
vt 0.246140 0.965768
vt 0.230052 0.970163
vt 0.198725 1.000000
vt 0.333333 0.507152
vt 0.497986 1.000000
vt 0.463455 0.967111
vt 0.436615 0.939771
vt 0.333333 0.905941
vt 0.362873 0.272430
vt 0.325225 0.272430
vt 0.294203 0.294203
vt 0.272430 0.325225
vt 0.272430 0.362872
vt 0.272750 0.363192
vt 0.325894 0.325894
vt 0.363192 0.272750
vt 0.666667 0.562237
vt 0.137128 0.227570
vt 0.175145 0.227570
vt 0.205950 0.205950
vt 0.227570 0.175145
vt 0.227570 0.137127
vt 0.227403 0.136960
vt 0.174259 0.174259
vt 0.136961 0.227403
vt 0.166667 0.506737
vt 0.230052 0.939771
vt 0.203211 0.967111
vt 0.168681 1.000000
vt 0.634542 0.423340
vt 0.542154 0.318172
vt 0.542154 0.370000
vt 0.705114 0.035915
vt 0.842391 0.063342
vt 0.750000 0.010000
vt 0.574086 0.500000
vt 0.663303 0.504640
vt 0.666667 0.504656
vt 0.666667 0.999752
vt 0.661611 1.000000
vt 0.685567 0.500000
vt 0.736725 0.505731
vt 0.792199 0.927100
vt 0.730052 0.944079
vt 0.671340 1.000000
vt 0.202658 0.500000
vt 0.236042 0.503653
vt 0.295158 0.924282
vt 0.230052 0.942070
vt 0.169230 1.000000
vt 0.040148 0.500000
vt 0.040701 0.500102
vt 0.164909 0.506728
vt -0.000000 0.500000
vt 0.152182 0.239238
vt 0.148799 0.239242
vt 0.148868 0.239338
vt 0.907776 0.101092
vt 0.925334 0.120207
vt 0.957846 0.157217
vt 0.957846 0.130000
vt 0.833333 0.562237
vt 0.833333 0.936988
vt 0.743431 0.966435
vt 0.730052 0.970091
vt 0.698649 1.000000
vt 0.239242 0.148799
vt 0.239238 0.152178
vt 0.239338 0.148867
vt 1.000000 0.562237
vt 0.968017 1.000000
vt 0.936615 0.970091
vt 0.923235 0.966435
vt 0.833333 0.505072
vt 1.000000 0.504657
vt 1.000000 0.999751
vt 0.965885 0.967258
vt 0.936615 0.937443
vt 0.833333 0.903613
vt 0.158699 0.238885
vt 0.354481 0.264055
vt 0.335950 0.265055
vt 0.238884 0.158700
vt 0.730052 0.937443
vt 0.700781 0.967258
vt 0.781192 0.281192
vt 0.720306 0.310748
vt 0.688975 0.279418
vt 0.718532 0.218531
vt 0.779418 0.188975
vt 0.810748 0.220305
vt 0.265055 0.335950
vt 0.264054 0.354481
s 0
f 1/1/1 60/2/1 61/3/1 4/4/1 3/5/1
f 2/6/2 3/7/2 6/8/2 5/9/2
f 3/5/3 4/4/3 7/10/3 6/11/3
f 4/4/4 55/12/4 57/13/4 56/14/4 53/15/4 7/10/4
f 5/9/5 6/8/5 51/16/5 50/17/5
f 6/11/6 7/10/6 52/18/6 51/19/6
f 7/10/7 53/15/7 52/18/7
f 8/20/8 74/21/8 75/22/8 11/23/8 10/24/8
f 9/25/9 10/26/9 12/27/9 71/28/9 72/29/9
f 10/30/10 11/31/10 73/32/10 70/33/10 12/34/10
f 11/31/11 82/35/11 78/36/11 73/32/11
f 12/34/12 70/33/12 68/37/12
f 13/38/13 14/39/13 17/40/13 16/41/13
f 14/42/14 15/43/14 18/44/14 17/45/14
f 15/43/15 35/46/15 41/47/15 40/48/15 18/44/15
f 16/41/16 17/40/16 19/49/16 48/50/16 49/51/16
f 17/45/17 18/44/17 45/52/17 44/53/17 19/54/17
f 18/44/18 40/48/18 46/55/18 45/52/18
f 19/54/19 44/53/19 47/56/19
f 20/57/20 21/58/20 64/59/20 61/60/20 60/61/20 63/62/20 114/63/20 115/64/20 117/65/20
f 22/66/21 23/67/21 66/68/21 67/69/21 113/70/21 106/71/21 108/72/21
f 24/73/22 25/74/22 43/75/22 49/76/22 48/77/22 47/78/22 90/79/22 89/80/22 105/81/22
f 26/82/23 27/83/23 28/58/23 84/84/23 85/85/23 92/86/23 95/87/23
f 24/88/24 105/89/24 104/90/24 103/91/24
f 46/92/25 40/93/25 41/94/25 28/95/25 27/96/25
f 42/97/25 39/98/25 43/99/25 25/100/25 29/101/25
f 63/102/26 1/103/26 58/104/26
f 71/28/27 12/27/27 68/105/27
f 34/106/28 15/43/28 14/42/28 38/107/28
f 37/108/29 13/38/29 16/41/29 39/109/29 42/110/29
f 59/111/30 2/6/30 54/112/30 62/113/30
f 54/112/31 2/6/31 5/9/31 65/114/31 67/115/31 66/116/31
f 60/2/32 1/1/32 63/117/32
f 48/50/33 19/49/33 47/118/33
f 55/12/34 4/4/34 61/3/34 64/119/34
f 58/104/35 1/103/35 3/7/35 2/6/35 59/111/35
f 78/120/36 82/121/36 83/122/36 32/95/36 31/96/36
f 81/123/36 80/124/36 79/125/36 30/100/36 33/101/36
f 57/126/37 55/127/37 64/128/37 21/95/37
f 62/129/37 54/130/37 66/131/37 23/101/37
f 82/132/38 11/23/38 75/22/38 83/133/38
f 77/134/39 8/135/39 10/74/39 9/136/39 76/137/39
f 38/138/40 14/39/40 13/38/40 36/139/40
f 36/139/41 13/38/41 37/108/41
f 76/137/42 9/136/42 80/140/42 81/141/42
f 65/114/43 5/9/43 50/17/43
f 39/109/44 16/41/44 49/51/44 43/142/44
f 35/46/45 15/43/45 34/106/45
f 69/143/46 8/135/46 77/134/46
f 74/21/47 8/20/47 69/144/47
f 80/145/48 9/25/48 72/29/48 79/146/48
f 101/147/49 99/148/49 32/58/49 83/149/49 75/150/49 74/151/49 69/152/49
f 96/153/21 97/154/21 33/67/21 30/155/21
f 97/154/50 101/147/50 69/152/50 77/156/50 76/157/50 81/158/50 33/67/50
f 86/159/51 84/84/51 28/58/51 41/160/51 35/161/51 34/162/51 38/163/51
f 111/164/52 115/165/52 114/166/52 107/167/52 106/168/52 113/169/52 110/170/52 112/171/52
f 99/148/23 100/172/23 31/83/23 32/58/23
f 88/173/53 89/174/53 90/175/53 91/176/53 85/177/53 84/178/53 86/179/53 87/180/53
f 87/181/54 86/159/54 38/163/54 36/182/54 37/183/54 42/184/54 29/67/54
f 108/185/55 109/186/55 22/187/55
f 117/188/55 116/189/55 20/190/55
f 116/191/23 111/192/23 112/193/23 56/194/23 57/195/23 21/58/23 20/57/23
f 94/196/56 91/197/56 90/79/56 47/78/56 44/198/56 45/199/56 46/200/56 27/83/56 26/82/56
f 109/201/57 107/202/57 114/63/57 63/62/57 58/203/57 59/204/57 62/205/57 23/67/57 22/66/57
f 103/206/21 102/207/21 88/208/21 87/181/21 29/67/21 25/155/21 24/209/21
f 104/210/58 102/211/58 103/212/58
f 95/213/24 93/214/24 94/215/24 26/216/24
f 100/172/59 98/217/59 68/218/59 70/219/59 73/220/59 78/221/59 31/83/59
f 92/222/60 93/223/60 95/224/60
f 98/217/61 96/225/61 30/74/61 79/226/61 72/227/61 71/228/61 68/218/61
f 110/229/62 113/230/62 67/231/62 65/232/62 50/233/62 51/234/62
f 102/211/63 104/210/63 105/235/63 89/174/63 88/173/63
f 115/165/64 111/164/64 116/236/64 117/237/64
f 93/223/65 92/222/65 85/177/65 91/176/65 94/238/65
f 112/193/66 110/229/66 51/234/66 52/239/66 53/240/66 56/194/66
f 101/241/67 97/242/67 96/243/67 98/244/67 100/245/67 99/246/67
f 106/168/68 107/167/68 109/247/68 108/248/68
